<svg xmlns="http://www.w3.org/2000/svg" width="110" height="104"><path fill="gray" d="M22.7 27H1.3A1.3 1.3 0 0 0 0 28.3v21.4A1.3 1.3 0 0 0 1.3 51H13v-9.3H9.7v-3.6H13v-2.7c0-3 1.9-4.8 4.6-4.8l2.8.2V34h-1.9c-1.5 0-1.8.7-1.8 1.8V38h3.6l-.5 3.6h-3.1V51h6.1a1.3 1.3 0 0 0 1.4-1.3L24 28.4a1.3 1.3 0 0 0-1.2-1.4z"/><g stroke="gray"><rect width="22" height="22" x="53" y="28" fill="none" stroke-width="2" rx="3%"/><path fill="gray" d="M64.1 31a8 8 0 0 0 0 16.1 8 8 0 0 0 4.6-1.4 1 1 0 0 0-1.2-1.7 6 6 0 0 1-3.4 1 6 6 0 1 1 6-6v.5a1 1 0 0 1-2 0v-3a1 1 0 0 0-1-1 1 1 0 0 0-1 .7 3.5 3.5 0 0 0-2-.7 3.5 3.5 0 0 0 0 7c1 0 2-.4 2.7-1.1a3 3 0 0 0 2.4 1.2 3 3 0 0 0 3-3V39a8 8 0 0 0-8-8zm0 9.6a1.5 1.5 0 1 1 0-3 1.5 1.5 0 0 1 0 3z"/></g><g stroke="null"><rect width="24" height="24" x="26" y="1" fill="gray" rx="3" ry="3"/><path fill="#fff" d="M31.7 4.5l1.7 3V11h1.4V7.6l1.5-3.1H35l-1 2.3-.8-2.3h-1.5zm6.1 1.7c-.9 0-1.5.5-1.5 1.2V10c0 .7.7 1.2 1.5 1.2s1.6-.5 1.6-1.2V7.4c0-.7-.6-1.2-1.6-1.2zm2.6.1v4c0 1 1.1 1 1.4.7l.4-.4v.4h1.4V6.3h-1.2V10c0 .5-.9.5-.9 0V6.3h-1.2zm-2.5.6c.3 0 .5.2.5.4V10c0 .3-.2.5-.6.5s-.5-.2-.5-.5V7.3c0-.2.3-.4.5-.4zm-6 5.2c-1.6 0-2.9 1-2.9 2.3v5c0 1.2 1.3 2.2 2.8 2.2h12.5c1.6 0 2.9-1 2.9-2.3v-4.9c0-1.3-1.3-2.2-2.9-2.2H31.8zM30.2 14h4v.7h-1.5V20h-1.2v-5.4h-1.3V14zm7.8 0h1.3v1.7c1.1-.7 2-.2 2 .7v2.4c0 1.2-.8 1.8-2.1.9l-.1.4h-1V14zm5.9 1.3c.6 0 1.3.2 1.3.8v1.8h-2.1V19c0 .3.2.4.5.4h.2c.3 0 .5-.1.5-.4v-.5h1c.4 2-3.2 2.4-3.2 0V17l.1-1c.2-.5.9-.8 1.7-.8zm-10 .3h1.3V19c0 .5.8.2.8 0v-3.5h1.3V20h-1v-.6c-.3.5-1.4.8-2 .5-.3-.2-.3-.5-.3-.7v-3.7zm6 .4c-.4 0-.6 0-.6.3V19c0 .5 1 .5 1 0v-2.7c0-.2-.2-.3-.5-.3zm3.8.2c-.3 0-.6 0-.6.4v.6h1.2v-.6c0-.3-.3-.4-.6-.4z"/></g><g fill="gray" stroke="null"><path stroke="null" d="M85.5 1L90 21.5h-9L85.5 1z"/><path stroke="gray" stroke-width="3" d="M85.5 103V21.3"/></g><path fill="gray" d="M20 1H4a4 4 0 0 0-4 4v16a4 4 0 0 0 4 4h16a4 4 0 0 0 4-4V5a4 4 0 0 0-4-4zm-8 8c2.3 0 4 1.8 4 4s-1.7 4-4 4-4-1.7-4-4 1.7-4 4-4zm5-2.7c0-.9.9-1.6 1.7-1.6s1.6.8 1.6 1.6S19.6 8 18.7 8 17 7.3 17 6.3zm3 16H4c-.8 0-1.3-.4-1.3-1.2v-8h2.6c0 3.7 3 6.6 6.7 6.6s6.7-3 6.7-6.7h2.6v8c0 .9-.5 1.4-1.3 1.4z"/><path fill="#7f007f" d="M22.7 79H1.3A1.3 1.3 0 0 0 0 80.3v21.3a1.3 1.3 0 0 0 1.3 1.4H13v-9.3H9.7v-3.6H13v-2.7c0-3.1 1.9-4.8 4.6-4.8l2.8.2V86h-1.9c-1.5 0-1.8.7-1.8 1.8V90h3.6l-.5 3.6h-3.1v9.3h6.1a1.3 1.3 0 0 0 1.4-1.4L24 80.3a1.3 1.3 0 0 0-1.2-1.4zM20 53H4a4 4 0 0 0-4 4v16a4 4 0 0 0 4 4h16a4 4 0 0 0 4-4V57a4 4 0 0 0-4-4zm-8 8c2.3 0 4 1.8 4 4s-1.7 4-4 4-4-1.7-4-4 1.7-4 4-4zm5-2.7c0-.9.9-1.6 1.7-1.6s1.6.8 1.6 1.6-.7 1.6-1.6 1.6-1.6-.6-1.6-1.6zm3 16H4c-.8 0-1.3-.5-1.3-1.3v-8h2.6a6.7 6.7 0 0 0 13.4 0h2.6v8c0 .8-.5 1.4-1.3 1.4z"/><g stroke-width="2"><rect width="22" height="22" x="52" y="2" fill="none" stroke="gray" rx="3%"/><path fill="gray" stroke="null" d="M72 18.2a.9.9 0 0 0-.4-.6l-3.7-2.2a1.1 1.1 0 0 0-.5-.1c-.3 0-.6.1-.8.3l-1.1 1.1-.3.1s-1.3 0-3.6-2.4c-2.3-2.3-2.4-3.6-2.4-3.6l.1-.2 1-1c.3-.3.4-.9.2-1.3l-2-3.8a.8.8 0 0 0-.8-.6c-.3 0-.5.2-.7.3l-2.5 2.6a2 2 0 0 0-.5 1c0 .1-.5 4 4.9 9.4 4.5 4.5 8 4.9 9 4.9a2.8 2.8 0 0 0 .3 0c.4 0 .8-.3 1-.5l2.6-2.6c.2-.2.3-.5.2-.7z"/></g><g stroke="#7f007f"><rect width="22" height="22" x="53" y="80.1" fill="none" stroke-width="2" rx="3%"/><path fill="#7f007f" d="M63.8 82.8a8 8 0 0 0 0 16.1 8 8 0 0 0 4.5-1.4 1 1 0 0 0-1.1-1.6 6 6 0 0 1-3.4 1 6 6 0 1 1 6-6v.5a1 1 0 0 1-2 0v-3a1 1 0 0 0-1-1 1 1 0 0 0-1 .6 3.5 3.5 0 0 0-2-.7 3.5 3.5 0 0 0 0 7c1 0 2-.4 2.6-1.1a3 3 0 0 0 2.4 1.2 3 3 0 0 0 3-3v-.5a8 8 0 0 0-8-8.1zm0 9.6a1.5 1.5 0 1 1 0-3 1.5 1.5 0 0 1 0 3z"/></g><rect width="24" height="24" x="26" y="53" fill="#7f007f" rx="3" ry="3"/><path fill="#fff" d="M31.7 56.5l1.7 3V63h1.4v-3.5l1.5-3H35l-.9 2.3-.8-2.3h-1.5zm6.1 1.7c-.9 0-1.5.5-1.5 1.2V62c0 .6.7 1.2 1.5 1.2s1.6-.6 1.6-1.2v-2.6c0-.7-.6-1.2-1.6-1.2zm2.6.1v4c0 1 1.1 1 1.4.7l.4-.3v.3h1.4v-4.7h-1.2V62c0 .5-.9.5-.9 0v-3.7h-1.2zm-2.5.6c.3 0 .5.2.5.4V62c0 .3-.2.5-.6.5s-.5-.2-.5-.4v-2.8c0-.2.3-.4.5-.4zm-6 5.3c-1.6 0-2.9 1-2.9 2.2v5c0 1.2 1.3 2.2 2.8 2.2h12.5c1.6 0 2.9-1 2.9-2.3v-4.9c0-1.3-1.3-2.2-2.9-2.2H31.8zm-1.6 1.7h4v.7h-1.5V72h-1.2v-5.3h-1.3v-.8zm7.8 0h1.3v1.7c1.1-.7 2-.2 2 .7v2.4c0 1.2-.8 1.8-2.1.9l-.1.4h-1v-6.1zm5.9 1.3c.6 0 1.3.2 1.3.8v1.8h-2.1V71c0 .3.2.4.5.4h.2c.3 0 .5-.1.5-.4v-.5h1c.4 2-3.2 2.3-3.2 0V69l.1-1c.2-.5.9-.8 1.7-.8zm-10 .3h1.3V71c0 .5.8.2.8 0v-3.5h1.3V72h-1v-.6c-.3.4-1.4.8-2 .5-.3-.2-.3-.5-.3-.7v-3.7zm6 .3c-.4 0-.6.2-.6.4V71c0 .5 1 .5 1 0v-2.7c0-.2-.2-.4-.5-.4zm3.8.3c-.3 0-.6 0-.6.4v.5h1.2v-.5c0-.3-.3-.4-.6-.4z"/><g stroke-width="2"><rect width="22" height="22" x="53" y="54" fill="none" stroke="#7f007f" rx="3%"/><path fill="#7f007f" stroke="null" d="M73 70.2a.9.9 0 0 0-.4-.6l-3.7-2.2a1.1 1.1 0 0 0-.5-.1c-.3 0-.6.1-.8.3l-1.1 1.1-.3.1s-1.3 0-3.6-2.4c-2.3-2.3-2.4-3.6-2.4-3.6l.1-.2 1-1c.3-.3.4-.9.2-1.3l-2-3.8a.8.8 0 0 0-.8-.6c-.3 0-.5.2-.7.3l-2.5 2.6a2 2 0 0 0-.5 1c0 .1-.5 4 4.9 9.4 4.5 4.5 8 4.9 9 4.9a2.8 2.8 0 0 0 .3 0c.4 0 .8-.3 1-.5l2.6-2.6c.2-.2.3-.5.2-.7z"/></g><g fill="#7f007f" stroke="null"><path stroke="none" d="M104.4 1l4.5 20.5H100L104.4 1z"/><path stroke="#7f007f" stroke-width="3" d="M104.5 103V21.2"/></g><rect width="24" height="24" x="26" y="27" fill="gray" rx="3%"/><path fill="#fff" d="M38.8 44.7c.3 0 .8-.1.8-.7 0 0-.1-1.5.6-1.7.7-.2 1.6 1.4 2.6 2 .7.5 1.2.5 1.2.5h2.5s1.4-.2.7-1.2c0-.1-.4-.8-1.9-2.1-1.5-1.5-1.3-1.3.6-3.8 1.1-1.6 1.6-2.5 1.4-2.9-.2-.3-1-.3-1-.3h-2.8c-.3 0-.5 0-.6.3 0 0-.4 1.3-1 2.3-1.3 2.1-1.8 2.2-2 2-.5-.2-.4-1.1-.4-1.8 0-2.2.3-3-.7-3.2l-1.2-.1c-1 0-2 0-2.4.2-.3.2-.6.5-.4.6.2 0 .6.1.8.4.3.4.3 1.2.3 1.2s.2 2.5-.4 2.8c-.3.2-.9-.2-2-2.1-.6-1-1-2.2-1-2.2-.2-.3-.3-.3-.7-.4h-2.7c-.3 0-.7 0-.6.6 0 0 2.2 5 4.6 7.5 2.1 2.2 4.7 2.1 4.7 2.1h1z"/><rect width="24" height="24" x="26" y="79" fill="#7f007f" rx="3%"/><path fill="#fff" d="M38.8 96.7c.3 0 .7-.1.7-.7 0 0 0-1.5.7-1.7.7-.2 1.6 1.4 2.5 2 .8.5 1.3.5 1.3.5h2.5s1.3-.2.7-1.2c0-.1-.4-.8-1.9-2.1-1.6-1.5-1.3-1.3.6-3.8 1.1-1.6 1.6-2.5 1.4-2.9-.2-.3-1-.3-1-.3h-2.8c-.3 0-.5 0-.6.3 0 0-.4 1.3-1 2.3-1.3 2.1-1.8 2.2-2 2-.5-.2-.4-1.1-.4-1.8 0-2.2.3-3-.7-3.2l-1.2-.1c-1 0-2 0-2.4.2-.3.2-.6.5-.4.6.2 0 .6.1.8.4.3.4.3 1.2.3 1.2s.2 2.5-.4 2.8c-.4.2-.9-.2-2-2.1-.6-1-1-2.2-1-2.2-.2-.3-.3-.3-.7-.4h-2.7c-.3 0-.8 0-.6.6 0 0 2.2 5 4.6 7.5 2.1 2.2 4.6 2.1 4.6 2.1h1.1z"/></svg>