<svg xmlns="http://www.w3.org/2000/svg" viewBox="0 0 133 164"><path d="M94.81 0H69.22a3.21 3.21 0 0 0-3.2 3.2v25.59c0 1.76 1.45 3.2 3.2 3.2h25.6c1.75 0 3.2-1.44 3.2-3.2V3.19A3.21 3.21 0 0 0 94.82 0zm-12.8 9.6a6.41 6.41 0 0 1 0 12.8 6.4 6.4 0 0 1 0-12.8zm-12 19.2c-.47 0-.79-.33-.79-.81V14.4h3.36c-.16.48-.16 1.12-.16 1.6 0 5.28 4.32 9.6 9.6 9.6s9.6-4.32 9.6-9.6c0-.48 0-1.12-.16-1.6h3.35V28c0 .48-.32.8-.8.8H70.02zm24.8-21.6c0 .48-.32.8-.8.8h-3.2a.76.76 0 0 1-.8-.8V4c0-.48.33-.8.8-.8h3.2c.48 0 .8.32.8.8v3.2zM30.23 33.01H1.79c-.97 0-1.77.8-1.77 1.77v28.45c0 .98.8 1.77 1.77 1.77h15.3V52.6h-4.16v-4.83h4.17v-3.56c0-4.13 2.52-6.38 6.2-6.38 1.77 0 3.28.13 3.73.2v4.3l-2.56.01c-2 0-2.39.95-2.39 2.35v3.08h4.78l-.63 4.83h-4.15V65h8.15c.97 0 1.76-.8 1.76-1.77V34.78c0-.98-.79-1.77-1.76-1.77zM62.99 0H35.07c-1.13 0-2.05.91-2.05 2.04v27.9c0 1.13.92 2.05 2.05 2.05h27.91c1.13 0 2.05-.92 2.05-2.04V2.05C65.03.9 64.1 0 62.99 0zm-3.42 19.5c.59.59 1.86 1.59 1.62 2.6-.2.94-1.6.6-2.96.65-1.55.07-2.46.1-3.4-.65-.43-.35-.69-.77-1.1-1.24-.39-.42-.87-1.18-1.53-1.15-1.17.05-.8 1.7-1.22 2.81-6.54 1.03-9.17-3-11.49-6.93a59.36 59.36 0 0 1-2.74-5.97l4.63-.02 1.87 3.4c.34.59.7 1.06 1.08 1.58.32.44.83 1.3 1.38 1.23.9-.12 1.06-3.6.5-4.76-.22-.47-.75-.63-1.3-.8.18-1.16 5.19-1.4 6-.5 1.17 1.32-.82 4.99.8 6.06 2.25-1.18 4.18-6.14 4.18-6.14l5.41.04s-.84 2.68-1.73 3.86c-.52.7-2.23 2.25-2.17 3.4.06.9 1.45 1.79 2.17 2.52z"/><path fill="#757575" d="M94.83 99.01h-25.6a3.21 3.21 0 0 0-3.2 3.2v25.6a3.21 3.21 0 0 0 3.2 3.19h25.6a3.2 3.2 0 0 0 3.2-3.2v-25.59a3.2 3.2 0 0 0-3.2-3.2zm-12.8 9.6c3.52 0 6.4 2.88 6.4 6.4s-2.88 6.4-6.4 6.4-6.4-2.89-6.4-6.4 2.89-6.4 6.4-6.4zm-12 19.2c-.47 0-.8-.33-.8-.81v-13.6h3.36c-.15.49-.15 1.12-.15 1.6 0 5.28 4.31 9.6 9.6 9.6s9.6-4.32 9.6-9.6c0-.48 0-1.12-.17-1.6h3.36V127c0 .48-.32.8-.8.8h-24zm24.8-21.6c0 .48-.32.8-.8.8h-3.2c-.48 0-.8-.32-.8-.8V103c0-.48.32-.8.8-.8h3.2c.48 0 .8.32.8.8v3.2zm-64.59-7.2H1.8c-.97 0-1.76.8-1.76 1.77v28.45c0 .98.79 1.77 1.76 1.77h15.31v-12.4h-4.16v-4.83h4.16v-3.56c0-4.13 2.52-6.38 6.2-6.38 1.77 0 3.29.13 3.73.2v4.3l-2.55.01c-2 0-2.4.95-2.4 2.35v3.08h4.78l-.62 4.83H22.1V131h8.14c.98 0 1.77-.8 1.77-1.77v-28.45c0-.98-.8-1.77-1.77-1.77zm32.76 0H35.08c-1.13 0-2.04.92-2.04 2.04v27.9c0 1.13.91 2.05 2.04 2.05H63c1.13 0 2.04-.92 2.04-2.04v-27.9c0-1.14-.91-2.05-2.04-2.05zm-3.41 19.5c.58.59 1.85 1.59 1.62 2.6-.21.94-1.6.6-2.96.65-1.55.07-2.47.1-3.4-.64-.43-.36-.7-.78-1.11-1.25-.38-.42-.86-1.18-1.52-1.15-1.18.06-.8 1.7-1.23 2.81-6.54 1.03-9.16-3-11.48-6.93a59.36 59.36 0 0 1-2.74-5.97l4.62-.02 1.88 3.4c.33.59.7 1.06 1.08 1.58.32.44.82 1.3 1.37 1.23.9-.11 1.06-3.6.5-4.76-.22-.47-.75-.63-1.3-.8.2-1.16 5.2-1.4 6-.5 1.18 1.32-.81 4.99.8 6.06 2.25-1.18 4.18-6.13 4.18-6.13l5.42.03s-.85 2.68-1.74 3.86c-.51.7-2.23 2.25-2.16 3.4.05.9 1.45 1.79 2.17 2.52z"/><rect width="28.96" height="29" x="34.52" y="133.51" fill="none" stroke="#757575" stroke-linecap="square" stroke-linejoin="bevel" stroke-width="3" rx="2" ry="2"/><path fill="#757575" d="M60.44 154.23c-.06-.2-.48-.48-1.24-.86l-.88-.49a82.14 81.77 0 0 1-1.91-1.08 21.43 21.33 0 0 0-.4-.28 4.55 4.55 0 0 0-.6-.35 1.06 1.06 0 0 0-.45-.1c-.22 0-.5.15-.82.45a7.94 7.9 0 0 0-.9 1.01c-.27.36-.56.7-.86 1-.3.32-.55.47-.75.47-.1 0-.22-.03-.37-.08a3.8 3.79 0 0 1-1.03-.55 17.14 17.06 0 0 1-3.84-2.82 17.14 17.06 0 0 1-2.84-3.82c0-.03-.06-.13-.18-.32a3.54 3.52 0 0 1-.36-.72 1.04 1.03 0 0 1-.1-.36c0-.2.16-.45.47-.75a9.83 9.79 0 0 1 1.01-.85 7.94 7.9 0 0 0 1.02-.9c.31-.33.46-.6.46-.81a1.03 1.02 0 0 0-.12-.47 4.54 4.52 0 0 0-.34-.57l-.29-.4a35.83 35.67 0 0 1-1.08-1.9c-.2-.39-.37-.68-.49-.88-.38-.77-.66-1.17-.85-1.24a.92.91 0 0 0-.35-.05 5.37 5.35 0 0 0-1.16.17 6.45 6.42 0 0 0-1.12.34c-.54.22-1.11.88-1.72 1.98a6.33 6.3 0 0 0-.78 3.86c.04.3.1.6.2.95a13.36 13.3 0 0 0 .58 1.67l.29.8a14.78 14.7 0 0 0 1.35 2.84c.86 1.38 2.03 2.81 3.52 4.3s2.92 2.64 4.31 3.49a14.8 14.74 0 0 0 2.86 1.35l.8.29.9.33.78.24a6.38 6.35 0 0 0 1.8.26c1 0 2-.28 3.03-.83 1.1-.6 1.76-1.18 1.99-1.72a6.5 6.47 0 0 0 .34-1.11c.12-.47.17-.86.17-1.15a.92.91 0 0 0-.05-.34z"/><rect width="28.96" height="29" x="1.52" y="133.51" fill="none" stroke="#757575" stroke-linecap="square" stroke-linejoin="bevel" stroke-width="3" rx="2" ry="2"/><g fill="#757575" stroke="null"><path d="M27.68 148.39a2.42 2.33 0 0 0-.95-1.3 3.28 3.16 0 0 0-1.66-.6c-2-.18-5.01-.27-9.04-.27-4.03 0-7.04.09-9.03.26a3.25 3.13 0 0 0-1.68.61c-.47.35-.78.78-.94 1.3-.28 1-.42 2.53-.42 4.57 0 2.07.14 3.6.42 4.56.15.52.45.95.94 1.3a3.18 3.06 0 0 0 1.67.6c2 .19 5 .28 9.04.28 4.03 0 7.04-.1 9.04-.28.63-.05 1.18-.25 1.66-.6s.8-.77.95-1.29c.28-1 .42-2.53.42-4.57 0-2.07-.14-3.6-.43-4.57zm-16.84 1.31H9.1v7.44H7.48v-7.43H5.77v-1.23h5.08v1.23zm4.4 7.44H13.8v-.71c-.58.53-1.14.8-1.66.8-.5 0-.81-.17-.94-.49a2.83 2.72 0 0 1-.14-.95v-5.1h1.46v4.75l.01.46c.03.18.14.28.34.28.3 0 .6-.19.93-.55v-4.94h1.46v6.45zm5.54-1.94c0 .64-.05 1.07-.15 1.3-.19.49-.57.73-1.15.73-.53 0-1.03-.24-1.52-.72v.63h-1.45v-8.66h1.45v2.84a2.08 2 0 0 1 1.52-.71c.58 0 .97.25 1.15.73.1.23.15.66.15 1.3v2.57zm5.5-1.07h-2.91v1.14c0 .6.25.9.75.9.36 0 .57-.16.65-.47.02-.1.03-.35.03-.8h1.48v.17c0 .43 0 .68-.03.76a1.3 1.3 0 0 1-.34.7c-.4.46-.98.7-1.76.7a2.27 2.19 0 0 1-1.76-.67c-.32-.32-.47-.82-.47-1.51v-2.26c0-.69.15-1.2.45-1.52a2.34 2.34 0 0 1 1.75-.67 2.23 2.15 0 0 1 1.73.67c.29.32.43.83.43 1.51v1.36z"/><path d="M18.7 151.67a1.14 1.1 0 0 0-.74.29v3.93a1.14 1.1 0 0 0 .74.29c.42 0 .63-.3.63-.87v-2.76c0-.59-.2-.88-.63-.88zm5.4 0c-.48 0-.73.3-.73.9v.59h1.47v-.6c0-.6-.24-.89-.73-.89zM9.9 141.51v3.54h1.63v-3.54l1.97-5.21h-1.66l-1.1 3.43-1.16-3.43H7.85c.3.73.66 1.54 1.06 2.44a20.1 19.36 0 0 1 1 2.77zm5.79 3.62c.75 0 1.32-.22 1.73-.67.3-.32.45-.83.45-1.54v-2.28c0-.7-.15-1.2-.45-1.52a2.19 2.1 0 0 0-1.74-.67 2.18 2.1 0 0 0-1.71.66c-.3.32-.46.83-.46 1.53v2.29c0 .7.16 1.2.46 1.53a2.18 2.1 0 0 0 1.71.67zm-.7-4.72c0-.6.24-.9.7-.9s.7.3.7.9v2.75c0 .6-.24.91-.7.91s-.7-.3-.7-.91v-2.75zm5.17 4.73c.55 0 1.1-.27 1.68-.81v.72h1.49v-6.52h-1.48v4.98c-.33.37-.64.56-.93.56-.2 0-.31-.1-.34-.29a2.22 2.22 0 0 1-.02-.46v-4.79h-1.48v5.15c0 .44.04.77.13.98.14.32.46.48.96.48z"/></g><rect width="28.96" height="29" x="1.52" y="67.51" fill="none" stroke="#000" stroke-linecap="square" stroke-linejoin="bevel" stroke-width="3" rx="2" ry="2"/><g stroke="null"><path d="M27.68 82.4a2.42 2.33 0 0 0-.95-1.3 3.28 3.16 0 0 0-1.66-.61c-2-.18-5.01-.27-9.04-.27-4.03 0-7.04.1-9.03.27a3.25 3.13 0 0 0-1.68.6c-.47.35-.78.78-.94 1.3-.28 1-.42 2.53-.42 4.57 0 2.07.14 3.6.42 4.57.15.51.45.94.94 1.3a3.18 3.06 0 0 0 1.67.6c2 .18 5 .27 9.04.27 4.03 0 7.04-.1 9.04-.27.63-.05 1.18-.26 1.66-.6s.8-.78.95-1.3c.28-1 .42-2.53.42-4.57 0-2.07-.14-3.6-.43-4.57zm-16.84 1.3H9.1v7.44H7.48V83.7H5.77v-1.23h5.08v1.23zm4.4 7.44H13.8v-.71c-.58.54-1.14.8-1.66.8-.5 0-.81-.16-.94-.48a2.83 2.72 0 0 1-.14-.96v-5.1h1.46v4.76l.01.45c.03.19.14.28.34.28.3 0 .6-.18.93-.55v-4.94h1.46v6.45zm5.54-1.94c0 .64-.05 1.07-.15 1.31-.19.48-.57.72-1.15.72-.53 0-1.03-.24-1.52-.72v.63h-1.45v-8.66h1.45v2.84a2.08 2 0 0 1 1.52-.7c.58 0 .97.24 1.15.72.1.23.15.66.15 1.3v2.57zm5.5-1.07h-2.91v1.14c0 .6.25.9.75.9.36 0 .57-.16.65-.47.02-.09.03-.35.03-.8h1.48v.18c0 .42 0 .67-.03.75a1.3 1.3 0 0 1-.34.7c-.4.47-.98.7-1.76.7a2.27 2.19 0 0 1-1.76-.67c-.32-.32-.47-.82-.47-1.51v-2.26c0-.69.15-1.19.45-1.52a2.33 2.33 0 0 1 1.75-.66 2.23 2.15 0 0 1 1.73.66c.29.32.43.83.43 1.51v1.36z"/><path d="M18.7 85.67a1.14 1.1 0 0 0-.74.29v3.93a1.14 1.1 0 0 0 .74.28c.42 0 .63-.28.63-.87v-2.75c0-.59-.2-.88-.63-.88zm5.4 0c-.48 0-.73.3-.73.89v.6h1.47v-.6c0-.6-.24-.9-.73-.9zM9.9 75.51v3.54h1.63V75.5l1.97-5.21h-1.66l-1.1 3.43-1.16-3.43H7.85c.3.73.66 1.54 1.06 2.44a20.1 19.36 0 0 1 1 2.77zm5.79 3.63c.75 0 1.32-.23 1.73-.67.3-.32.45-.83.45-1.54v-2.29c0-.7-.15-1.2-.45-1.52a2.19 2.1 0 0 0-1.74-.67 2.18 2.1 0 0 0-1.71.67c-.3.32-.46.82-.46 1.52v2.3c0 .69.16 1.2.46 1.53a2.18 2.1 0 0 0 1.71.67zm-.7-4.73c0-.6.24-.9.7-.9s.7.3.7.9v2.75c0 .6-.24.91-.7.91s-.7-.3-.7-.91v-2.74zm5.17 4.73c.55 0 1.1-.27 1.68-.8v.71h1.49v-6.52h-1.48v4.98c-.33.37-.64.56-.93.56-.2 0-.31-.1-.34-.29a2.22 2.22 0 0 1-.02-.46v-4.79h-1.48v5.15c0 .44.04.77.13.98.14.32.46.48.96.48z"/></g><rect width="28.96" height="29" x="34.52" y="67.51" fill="none" stroke="#000" stroke-linecap="square" stroke-linejoin="bevel" stroke-width="3" rx="2" ry="2"/><path d="M60.44 88.23c-.06-.2-.48-.48-1.24-.86l-.88-.49a82.14 81.77 0 0 1-1.91-1.07 21.43 21.33 0 0 0-.4-.29 4.55 4.55 0 0 0-.6-.34 1.06 1.06 0 0 0-.45-.12c-.22 0-.5.16-.82.46a7.94 7.9 0 0 0-.9 1.01c-.27.36-.56.7-.86 1.01-.3.31-.55.46-.75.46-.1 0-.22-.02-.37-.07a3.8 3.79 0 0 1-1.03-.56 17.14 17.06 0 0 1-3.84-2.82 17.14 17.06 0 0 1-2.84-3.82c0-.02-.06-.13-.18-.32a3.54 3.52 0 0 1-.36-.71 1.04 1.03 0 0 1-.1-.37c0-.2.16-.45.47-.74a9.83 9.79 0 0 1 1.01-.86 7.94 7.9 0 0 0 1.02-.9c.31-.33.46-.6.46-.8a1.03 1.02 0 0 0-.12-.48 4.54 4.52 0 0 0-.34-.57l-.29-.4a35.83 35.67 0 0 1-1.08-1.9c-.2-.39-.37-.68-.49-.88-.38-.77-.66-1.17-.85-1.24a.92.91 0 0 0-.35-.05 5.37 5.35 0 0 0-1.16.17 6.45 6.42 0 0 0-1.12.34c-.54.23-1.11.89-1.72 1.98a6.33 6.3 0 0 0-.78 3.87c.04.28.1.59.2.94a13.36 13.3 0 0 0 .58 1.67l.29.8a14.78 14.7 0 0 0 1.35 2.84c.86 1.38 2.03 2.82 3.52 4.3s2.92 2.64 4.31 3.49a14.8 14.74 0 0 0 2.86 1.35l.8.29.9.34.78.23a6.38 6.35 0 0 0 1.8.26c1 0 2-.28 3.03-.83 1.1-.6 1.76-1.18 1.99-1.72a6.5 6.47 0 0 0 .34-1.11c.12-.47.17-.85.17-1.15a.92.91 0 0 0-.05-.34zm35.28 4.57V77.54q-.57.72-1.23 1.31-4.78 4.1-7.6 6.72-.91.85-1.48 1.33t-1.55.96-1.83.49H82q-.86 0-1.83-.49t-1.55-.96-1.48-1.33q-2.82-2.62-7.6-6.72-.66-.6-1.23-1.3V92.8q0 .26.17.44t.4.2h26.27q.24 0 .4-.2t.17-.44zm0-20.88v-.74l-.06-.25-.1-.18-.16-.15-.25-.05H68.88q-.23 0-.4.2t-.17.44q0 3.33 2.62 5.64 3.45 3.02 7.16 6.3l.62.58.82.75q.3.27.8.62t.9.55.77.18h.03q.36 0 .77-.18t.9-.55.8-.62.82-.75.62-.59l7.16-6.3q.96-.85 1.8-2.29t.82-2.6zm2.29-.73v21.6q0 1.32-.84 2.25t-2.02.93H68.88q-1.18 0-2.02-.93t-.84-2.24V71.19q0-1.31.84-2.25t2.02-.93h26.27q1.18 0 2.02.93t.84 2.25z"/><path fill="#757575" d="M95.72 158.8v-15.25q-.57.71-1.23 1.3-4.78 4.1-7.6 6.72-.91.85-1.48 1.33t-1.55.96-1.83.5H82q-.86 0-1.83-.5t-1.55-.96-1.48-1.33q-2.82-2.62-7.6-6.71-.66-.6-1.23-1.31v15.25q0 .26.17.45t.4.19h26.27q.24 0 .4-.2t.17-.44zm0-20.87v-.75l-.06-.25-.1-.18-.16-.14-.25-.05H68.88q-.23 0-.4.18t-.17.45q0 3.34 2.62 5.64 3.45 3.02 7.16 6.3l.62.58.82.75q.3.27.8.62t.9.55.77.18h.03q.36 0 .77-.18t.9-.55.8-.62.82-.75.62-.58q3.71-3.28 7.16-6.3.96-.85 1.8-2.3t.82-2.6zm2.29-.74v21.6q0 1.32-.84 2.25t-2.02.94H68.88q-1.18 0-2.02-.94t-.84-2.24v-21.6q0-1.32.84-2.25t2.02-.94h26.27q1.18 0 2.02.94t.84 2.24z"/><g fill="#3f007f" stroke-width="0"><path d="M4.54 8.78c-.13 0-.23-.1-.26-.24a7.55 7.55 0 0 1 .07-3.06c.2-.77.56-1.4 1.08-1.86a3.8 3.8 0 0 1 2.29-.92c.72-.05 1.46.06 1.98.32 1.63.78 2.98 1.27 4.02 1.46.8.15 1.41.12 1.83-.1.44-.23.55-.62.65-.93v-.02c.04-.15.19-.23.32-.18.14.05.21.21.17.36v.02c-.1.35-.28.95-.93 1.29-.31.16-.7.24-1.16.24-1.18 0-2.87-.53-5.1-1.6a3.7 3.7 0 0 0-1.75-.28c-.55.04-1.35.21-2 .8-.43.39-.74.92-.91 1.57a6.9 6.9 0 0 0-.05 2.8c.03.15-.07.3-.2.33h-.05z"/><path d="M3.95 18.88c-.3 0-.6-.05-.91-.15a2.94 2.94 0 0 1-1.93-1.82 4.13 4.13 0 0 1 .02-2.76c.2-.44.58-1.24 1.5-1.63.08-.04.19-.07.31-.11a3 3 0 0 1 .52-1.4c.67-1 1.47-1.47 2.67-1.59a7.1 7.1 0 0 1 2.42.15l.1-.43.06-.22c.26-1.08.6-2.26 1.05-2.81.38-.45.74-.71 1.28-.95.13-.05.28.02.33.17.05.16-.02.32-.15.38-.47.2-.76.41-1.08.8-.44.52-.8 2-.93 2.57l-.06.24-.1.4c.28.06.7.13 1.12.17.93.07 1.2-.1 1.26-.16.11-.1.28-.09.37.04a.3.3 0 0 1-.04.4c-.28.27-.81.36-1.62.3a8.3 8.3 0 0 1-1.22-.2 71.8 71.8 0 0 0-.3 1.4l-.07.35a27.58 27.58 0 0 1-1.37 4.48 5.4 5.4 0 0 1-1.3 1.63 3 3 0 0 1-1.93.75zm-1.01-5.86l-.14.05c-.73.3-1.02.94-1.22 1.35-.12.26-.35 1.3 0 2.26.27.72.8 1.22 1.6 1.49.84.28 1.65.1 2.4-.51a4.9 4.9 0 0 0 1.15-1.45c.3-.6.6-1.58.74-2.05a31.28 31.28 0 0 0 .66-2.64l.18-.85.1-.53A6.75 6.75 0 0 0 6.19 10c-1.06.1-1.73.5-2.31 1.36-.2.28-.33.59-.39.9l.31-.03c.61-.06 1.08.06 1.4.35.22.2.39.5.48.84.1.38.07.75-.05 1.04a1.2 1.2 0 0 1-.74.67c-.32.1-.66.04-.93-.16a2.5 2.5 0 0 1-.98-1.66l-.03-.3zm.5-.14l.04.33c.1.55.33.96.76 1.28.14.1.33.14.5.09a.65.65 0 0 0 .42-.37c.12-.3.02-.88-.29-1.16-.2-.2-.57-.27-1.04-.23l-.39.06zm9.49 2.45c-.18 0-.36-.04-.55-.11-1.2-.5-.97-2.23-.79-2.86.21-.7.44-1.24.74-1.75.4-.7 1.2-1.48 1.8-1.6.14-.04.27.07.3.23.02.16-.07.3-.2.34-.42.08-1.09.7-1.47 1.36-.28.46-.49.96-.68 1.6-.06.22-.15.7-.1 1.16.04.5.23.83.58.97.27.11.52.1.76-.02.25-.14.74-.57 1.17-1.86-.1 0-.2-.02-.29-.05a1.28 1.28 0 0 1-.87-1.08c-.06-.6.1-1.34.7-1.49.34-.08.57.03.7.14.31.26.4.73.43 1.07.02.21.02.43 0 .65a3.96 3.96 0 0 0 1.02-1.07l-.17-.17c-.44-.5-.56-1.6-.23-2.14.21-.34.57-.43.96-.23.12.06.28.2.35.54.07.4-.01.96-.15 1.46l.15-.1.1-.09.04-.02c.21-.16.54-.4.86-.31.12.03.28.12.4.36.26.52-.06.97-.27 1.26l-.11.17c-.27.43-.6.94-.94 1.44-.25.37-.35.7-.26.85.08.14.15.16.21.16.1 0 .33-.06.74-.5a8.66 8.66 0 0 0 .8-1.03l.87-1.22c.14-.71.33-1.34.73-2.03.27-.46.58-.99 1.11-1.23.27-.12.6-.09.86.08a.9.9 0 0 1 .4.63c.09.6-.07 1.13-.47 1.6-.32.4-.74.68-1.12.93a5.31 5.31 0 0 1-1.06.42 2.1 2.1 0 0 0 0 .79c.1.37.54.58.89.54.28-.03.83-.34 1.92-1.64h.01l.45-.52c.46-.52.9-1.02 1.22-1.61-.3-.36-.45-.63-.45-.86 0-.49.27-1.02.77-1.03a.6.6 0 0 1 .54.33c.16.28.18.69.05 1.01-.1.22-.17.34-.25.46l.66.66.33.33.2.22c.25.27.51.55.7.93a3 3 0 0 1 .24 1.87c-.12.7-.46 1.28-.92 1.6-.4.29-.77.4-1.07.4-.63 0-1.04-.46-1.28-.72a.32.32 0 0 1-.02-.42c.1-.11.27-.12.37 0 .35.37.81.88 1.73.24.34-.23.59-.67.68-1.21a2.4 2.4 0 0 0-.17-1.47 3.9 3.9 0 0 0-.62-.8l-.2-.23a25.14 25.14 0 0 1-.9-.9 9.63 9.63 0 0 1-1.25 1.6l-.44.51v.02c-.63.74-1.53 1.73-2.25 1.81a1.3 1.3 0 0 1-.85-.19c-.29-.17-.5-.44-.58-.76a1.8 1.8 0 0 1-.05-.3l-.38.53-.09.13c-.17.23-.45.63-.76.96-.42.45-.78.66-1.1.65-.18 0-.43-.08-.63-.4-.23-.39-.13-.93.28-1.54a49.16 49.16 0 0 0 1.06-1.63c.23-.32.3-.45.21-.6-.02-.05-.04-.08-.06-.09-.1-.03-.35.15-.46.24l-.04.02-.1.08c-.17.13-.4.31-.68.33l-.18.32a5 5 0 0 1-.95 1c-.17.12-.34.2-.5.27l-.05.15c-.47 1.5-1.06 2.08-1.47 2.3-.2.1-.4.16-.61.16zm1.32-4.6l-.11.01c-.37.1-.3.82-.3.86.03.28.28.5.5.57.1.03.19.04.28.04.04-.26.05-.53.03-.78-.02-.31-.1-.55-.22-.64-.02-.02-.07-.06-.18-.06zm7.47-2.08a.39.39 0 0 0-.16.03c-.38.17-.62.57-.87 1-.28.5-.45.95-.57 1.45.25-.09.56-.2.65-.26h.01c.84-.57 1.47-1.07 1.34-1.93a.32.32 0 0 0-.15-.22.48.48 0 0 0-.25-.07zm-5.37.25c-.09 0-.12.05-.14.09-.18.28-.12 1.06.16 1.39l.03.03.06-.23c.12-.45.17-.87.12-1.1-.01-.07-.03-.12-.05-.13a.42.42 0 0 0-.18-.05zm8.19-.42c0 .03.03.13.22.36.05-.08.1-.16.15-.29a.56.56 0 0 0-.01-.44c-.03-.06-.07-.06-.1-.06-.2 0-.26.26-.26.43zm4.09 3.9c-.1 0-.2-.02-.28-.04-.41-.1-.7-.53-.86-1.3a7.99 7.99 0 0 1-.14-1.51 21.34 21.34 0 0 1 .47-3.77l-.57.15a2.41 2.41 0 0 1-2.03-.77c-.62-.71-.63-1.66-.52-2.33.07-.42.22-.76.44-1.03.19-.22.43-.38.68-.44.36-.08.7.03.85.3.08.13.05.3-.07.4-.12.09-.28.06-.36-.08-.02-.04-.13-.09-.31-.05-.14.03-.59.2-.72 1-.13.78 0 1.39.37 1.81.49.55 1.28.68 1.58.62.26-.06.54-.14.82-.25.22-.86.56-2.02.97-2.9l.01-.03c.2-.4.45-.97.78-1.4.43-.6.88-.82 1.33-.69a.9.9 0 0 1 .62.58c.1.33.07.77-.12 1.3a10.08 10.08 0 0 1-1.36 2.33 4.16 4.16 0 0 1-1.81 1.25l-.08.35a20.4 20.4 0 0 0-.46 3.65c0 1.24.25 2.16.6 2.24.43.1 1.06-.16 1.54-2 .1-.36.14-.58.17-1.06 0-.16.13-.28.27-.27.14.01.25.15.24.31-.03.56-.09.82-.18 1.19-.18.68-.4 1.23-.66 1.63-.4.63-.85.8-1.21.8zM30.83.62c-.57 0-1.11 1.17-1.41 1.81l-.02.03c-.32.7-.6 1.6-.8 2.36l.02-.02c.42-.21.85-.47 1.21-.92.31-.38.56-.78.84-1.26.43-.75.64-1.44.54-1.76-.03-.07-.08-.16-.27-.22a.41.41 0 0 0-.11-.02z"/><path d="M25.87 7.64c-.12 0-.23-.1-.25-.23-.03-.16.06-.32.2-.35l.17-.04a67.2 67.2 0 0 1 3.81-.78c.14-.02.27.1.29.25a.3.3 0 0 1-.23.33 55 55 0 0 0-3.77.78l-.17.04h-.05zM1.69 31.97c-.1 0-.19 0-.28-.02-.45-.08-.87-.53-1.04-1.1-.15-.53-.06-1.04.24-1.37.42-.47 1-.68 1.65-.61.38.04.73.17 1.04.31l.03-.14c.26-.92.46-1.88.64-2.81.28-1.39.57-2.82 1.07-4.16.24-.67.58-1.51 1.07-2.17.57-.77 1.24-1.15 2-1.15.14 0 .25.13.25.29 0 .16-.11.29-.26.29-1.32 0-2.05 1.5-2.59 2.96-.47 1.3-.76 2.7-1.03 4.07a41.38 41.38 0 0 1-.72 3.08l.1.06.08.06c.53.34 1.13.74 1.7.93.28.1.6.17.99.21.8.08 1.37-.01 2.03-.34a2.92 2.92 0 0 0 1.43-1.98c.2-.84.06-1.7-.36-2.34-.3-.44-.61-.73-1-1.02a1.6 1.6 0 0 0-.37-.18l-.17-.08-.04.02c-.42.22-.84.45-1.36.4-.53-.07-.57-.43-.57-.54 0-.38.37-.69.73-.74.47-.07.85 0 1.24.22.48-.25.9-.53 1.36-.87.19-.13.35-.3.53-.48l.25-.24c.52-.5.82-1.37.8-2.39 0-.8-.25-1.6-.68-2.26-.39-.6-.86-1-1.55-1.3-.4-.2-.87-.38-1.33-.42-1-.07-2.07.2-3.15.82a4.97 4.97 0 0 0-2.14 2.9c-.18.64-.3 1.6.16 2.56.22.45.58.89.78.8.14-.07.29 0 .34.15.06.15 0 .32-.14.38-.2.1-.53.12-.92-.3a3.18 3.18 0 0 1-.51-.75c-.43-.9-.5-1.94-.2-3.02a5.5 5.5 0 0 1 2.4-3.24 5.96 5.96 0 0 1 3.41-.88 4.5 4.5 0 0 1 1.5.45c.77.36 1.32.82 1.76 1.5.5.76.78 1.68.8 2.6a3.82 3.82 0 0 1-1.24 3.08c-.18.18-.37.37-.59.53-.35.25-.67.47-1 .68l.18.11a3.67 3.67 0 0 1 1.58 4 3.5 3.5 0 0 1-1.72 2.36c-.75.37-1.39.48-2.29.4a4.82 4.82 0 0 1-1.1-.24c-.62-.21-1.24-.62-1.8-.99L3.6 30c-.13.38-.29.74-.49 1.06-.38.6-.86.9-1.41.9zM2 29.44c-.37 0-.73.12-1.03.45-.22.25-.15.62-.1.77.1.37.36.66.62.7.82.15 1.3-.62 1.63-1.62-.31-.16-.72-.3-1.12-.3zm4.8-4.86l.04.01c.22.03.44-.03.65-.12a1.5 1.5 0 0 0-.47.01.45.45 0 0 0-.23.1z"/><path d="M10.73 25.28c-.14 0-.25-.12-.26-.27 0-.16.1-.3.23-.31.15-.05.7-.51 1.08-.89a5.34 5.34 0 0 0 1.53-2.63v-.01c.17-.8.33-1.5.27-2.21-.48-.08-.82-.27-1.16-.85-.16-.27-.27-.7-.15-1.03a.6.6 0 0 1 .45-.38c.6-.1 1 .77 1.1 1.04.1.22.16.44.2.66.19-.01.4-.06.58-.11l.14-.04c.05 0 .11-.03.18-.06.22-.08.56-.21.87.06a.9.9 0 0 1 .25.87c-.04.25-.16.47-.28.68l-.1.18c-.2.36-.42.74-.57 1.12-.15.36-.24.87-.13 1.06.09.16.15.15.18.15.04 0 .22-.06.52-.5a4.19 4.19 0 0 0 .5-1.1l.1-.32c.2-.61.38-1.26.54-1.88l.27-1a.25.25 0 0 1 .33-.18c.13.05.2.21.16.36-.1.33-.18.67-.26.99a28.72 28.72 0 0 1-.75 2.57c-.08.21-.26.59-.48.91-.3.45-.6.7-.88.73-.19.02-.45-.04-.66-.41-.33-.57.05-1.52.1-1.63.16-.4.38-.8.6-1.19l.1-.17c.28-.5.26-.67.13-.78-.07-.07-.15-.05-.38.04l-.23.08-.13.03c-.2.05-.4.1-.62.12.04.8-.12 1.57-.28 2.32v.02a5.87 5.87 0 0 1-1.7 2.94l-.62.55c-.47.4-.64.46-.75.47h-.02zm2.1-8h-.02c-.05.01-.06.03-.06.03-.04.1.01.32.1.47.2.34.37.5.63.56a3.3 3.3 0 0 0-.12-.36c-.16-.4-.39-.7-.54-.7zm4.91-.53h-.08c-.13-.05-.21-.22-.17-.37.04-.15.1-.28.15-.4l.11-.3c.04-.15.19-.24.32-.19.14.05.21.22.17.37l-.14.37c-.04.1-.09.21-.12.32a.25.25 0 0 1-.24.2z"/><path d="M17.67 22.25c-.23 0-.48-.1-.73-.4-.5-.57-.45-1.53-.32-2.23v-.07l.21-1.06c.03-.16.17-.25.31-.21.14.03.23.2.2.35-.08.34-.15.7-.2 1.04l-.02.06c-.19 1.08.04 1.54.19 1.72.21.25.38.27.7.1.65-.37.9-1.43 1.11-2.29l.1-.41c.05-.16.19-.24.33-.2.13.05.21.21.17.37l-.1.4c-.23.96-.53 2.17-1.38 2.65a1.2 1.2 0 0 1-.57.18z"/><path d="M20.37 21.6l-.18-.01c-.34-.05-.64-.28-.85-.65a2 2 0 0 1-.24-1.07c.08-1.3.42-2.21 1.06-2.88.32-.34.9-.6 1.42-.38.24.1.56.4.7.75.07.21.08.42 0 .6-.05.15-.2.21-.33.15s-.2-.23-.14-.38c.02-.04 0-.1-.01-.14a.9.9 0 0 0-.4-.43c-.3-.13-.68.04-.9.26-.54.57-.81 1.33-.89 2.49-.03.46.25 1.04.64 1.1.3.03.72-.02 1.05-.92l.08-.23c.12-.3.18-.47.25-.95.02-.16.15-.27.29-.24.14.02.24.17.22.33-.08.55-.17.79-.28 1.1l-.08.2c-.16.46-.37.8-.63 1-.22.2-.49.3-.78.3z"/><path d="M22.41 21.3a.78.78 0 0 1-.55-.24c-.48-.47-.35-1.36-.26-1.94 0-.07.02-.14.03-.2v-.06a10 10 0 0 1 .15-.93c.1-.44.35-1.39.66-2.36.26-.83.64-1.92.95-2.45.34-.58.85-1.27 1.38-1.32.22-.02.42.07.58.26.1.12.1.3 0 .42-.1.1-.27.1-.37-.01-.07-.09-.12-.1-.17-.09-.24.02-.62.43-1 1.06-.5.85-1.32 3.7-1.53 4.63-.06.3-.1.56-.14.87V19l-.03.22c-.07.45-.17 1.14.1 1.4.08.09.18.11.3.08.2-.06.4-.3.5-.57.04-.15.2-.23.32-.17.14.05.2.22.16.37-.15.45-.5.83-.86.93a.77.77 0 0 1-.22.04z"/><path d="M30.02 24.27h-.15c-.88-.05-1.53-1.02-1.66-1.93-.11-.78.1-1.6.33-2.23-.48.08-1.08.03-1.42-.37-.34-.4-.41-.94-.33-1.48a1.14 1.14 0 0 1-.3-.25c-.06.31-.15.6-.26.88-.16.41-.6 1.08-.88 1.37-.6.64-1.3.84-1.93.53a1.07 1.07 0 0 1-.53-.66 2.8 2.8 0 0 1 0-1.42c.12-.54.31-1 .39-1.18a2.9 2.9 0 0 1 1.3-1.45c.25-.12.5-.12.73-.12h.04c.3 0 .44.11.57.22l.05.04c.12.1.15.27.07.4-.08.14-.24.17-.36.08a3.2 3.2 0 0 1-.06-.05c-.1-.08-.14-.1-.26-.1h-.05c-.2 0-.38 0-.53.07-.4.19-.82.66-1.04 1.16-.07.16-.24.58-.34 1.07-.1.45-.1.83-.03 1.08.05.15.13.26.26.32.6.3 1.15-.18 1.36-.4.23-.26.64-.86.77-1.2.16-.4.25-.78.3-1.27.02-.14.1-.25.23-.28.15-.04.3.06.4.26l.15.23h.02v.02l.07.07c.2-.58.5-1.12.8-1.49a3.16 3.16 0 0 1 1.63-1.2c.3-.06.6 0 .84.2.22.18.35.45.38.76.05.59-.34 1.13-.67 1.47-.36.37-.82.7-1.19.85a2.9 2.9 0 0 1-1.44.17c-.04.34.01.66.21.9.26.3.96.25 1.35.1l.05-.1.11-.24c.21-.44.47-1 .85-1.09.12-.03.3-.03.49.14l.04.04.03.06a.7.7 0 0 1 0 .53c-.17.48-.82.91-1.2 1.11-.4.86-.58 1.7-.5 2.36.1.67.58 1.4 1.18 1.44.45.02.86-.08 1.13-.3.35-.26.58-.93.67-1.41.05-.29.04-.56-.03-.66-.02-.02-.04-.05-.1-.05-.13-.02-.24-.16-.23-.32.01-.16.14-.28.28-.26a.6.6 0 0 1 .46.28c.23.35.16.9.12 1.12-.05.3-.27 1.33-.88 1.8-.43.32-.95.38-1.3.38zm-.1-5.66a.82.82 0 0 0-.18.2l-.01.04a1 1 0 0 0 .19-.24zm-2.5-.74c.35.05.78-.01 1.13-.15.55-.22 1.57-1.09 1.52-1.7a.5.5 0 0 0-.18-.35.5.5 0 0 0-.43-.1c-.48.12-1.03.62-1.34 1.01-.22.28-.52.78-.7 1.3z"/><path d="M21.54 28.4c-.36 0-.7-.1-.98-.32a1.46 1.46 0 0 1-.53-1.18c0-1.46.99-2.67 1.31-3.07a5.13 5.13 0 0 1 2.85-1.79 4.16 4.16 0 0 1 1.07-.05l.2-.84.09-.43c.17-.8.36-1.62.44-2.43.02-.16.14-.28.29-.26.14.02.24.16.22.32-.09.86-.27 1.7-.45 2.51l-.1.43c-.06.3-.13.58-.2.85.12.05.22.12.3.2.24.22.37.52.38.9 0 .17-.1.3-.24.31-.14.01-.27-.11-.27-.28-.01-.21-.07-.37-.2-.48a.65.65 0 0 0-.1-.09l-.2.68a10.27 10.27 0 0 1-2.01 3.9c-.14.18-.65.77-1.18.99-.22.09-.46.13-.7.13zm3.38-5.84c-.2 0-.41.02-.66.06-.84.14-1.88.8-2.54 1.61-.13.16-.44.55-.7 1.04a3.45 3.45 0 0 0-.47 1.63c0 .3.1.54.3.7.31.24.8.29 1.2.12.34-.14.74-.54.98-.83.37-.45 1.23-1.49 1.9-3.7l.18-.62-.19-.01z"/></g><g fill="#3f3f3f" stroke-width="0"><path d="M4.75 8.9c-.12 0-.23-.1-.25-.23a7.55 7.55 0 0 1 .06-3.07c.2-.76.57-1.39 1.09-1.86a4.2 4.2 0 0 1 4.27-.6c1.63.78 2.98 1.28 4.01 1.47.8.14 1.42.11 1.83-.1.45-.23.56-.62.65-.94v-.01c.05-.16.2-.24.33-.19.13.05.2.22.16.37v.01c-.1.36-.27.95-.93 1.29-.3.16-.7.24-1.15.24-1.19 0-2.87-.53-5.1-1.6-.36-.17-1-.33-1.76-.27-.55.04-1.34.2-2 .8-.43.38-.73.91-.9 1.56A6.9 6.9 0 0 0 5 8.57c.02.15-.07.3-.21.33h-.05z"/><path d="M4.17 19c-.3 0-.61-.04-.92-.15a2.94 2.94 0 0 1-1.93-1.82 4.13 4.13 0 0 1 .02-2.76c.2-.43.59-1.24 1.5-1.62l.32-.12a3 3 0 0 1 .51-1.4 3.36 3.36 0 0 1 2.68-1.58 7.1 7.1 0 0 1 2.41.14l.11-.42.06-.23c.26-1.08.59-2.25 1.05-2.8.37-.46.73-.72 1.27-.95.14-.06.28.02.33.17.05.15-.01.32-.15.37-.47.2-.75.42-1.08.8-.43.53-.8 2.01-.93 2.57l-.06.24-.1.4c.28.06.7.14 1.13.17.93.08 1.2-.1 1.26-.16.1-.1.27-.08.36.04a.3.3 0 0 1-.03.41c-.29.26-.82.36-1.63.3a8.3 8.3 0 0 1-1.22-.2 71.8 71.8 0 0 0-.29 1.39l-.08.35c-.18.81-.34 1.5-.59 2.34a15 15 0 0 1-.77 2.14c-.09.16-.52 1-1.3 1.64a3 3 0 0 1-1.93.75zm-1.02-5.86l-.13.05c-.73.31-1.03.94-1.22 1.35a3.49 3.49 0 0 0 0 2.27c.26.72.8 1.21 1.6 1.48.84.28 1.64.11 2.4-.5a4.9 4.9 0 0 0 1.15-1.45c.3-.61.6-1.58.73-2.05a31.28 31.28 0 0 0 .66-2.65 63.46 63.46 0 0 1 .3-1.38 6.75 6.75 0 0 0-2.25-.13c-1.06.1-1.73.5-2.31 1.36-.2.29-.32.59-.38.91l.3-.04c.62-.05 1.09.07 1.41.36.21.19.38.5.47.84.1.38.08.74-.05 1.03a1.2 1.2 0 0 1-.74.67 1 1 0 0 1-.92-.16c-.54-.4-.86-.95-.98-1.65l-.04-.3zm.51-.14c0 .11.02.22.04.34.09.55.33.95.75 1.27.15.11.33.14.51.09a.65.65 0 0 0 .41-.37c.13-.29.02-.88-.28-1.16-.21-.19-.58-.27-1.04-.23l-.39.06zm9.48 2.46c-.18 0-.36-.04-.54-.12-1.2-.5-.98-2.23-.8-2.85.22-.7.44-1.25.74-1.75.41-.7 1.2-1.49 1.8-1.61.14-.03.28.07.3.23.03.16-.06.31-.2.34-.41.08-1.08.7-1.47 1.36a6.9 6.9 0 0 0-.67 1.61c-.07.21-.16.7-.11 1.15.05.51.24.83.58.97.27.11.52.1.76-.02.26-.14.75-.56 1.17-1.86a.87.87 0 0 1-.28-.05 1.28 1.28 0 0 1-.87-1.08c-.06-.59.09-1.34.7-1.49.33-.08.56.04.7.15.3.26.4.72.43 1.07v.65a3.96 3.96 0 0 0 1.02-1.08.94.94 0 0 1-.18-.17c-.44-.5-.55-1.6-.22-2.13.21-.35.57-.43.96-.24.12.07.28.21.34.54.08.4 0 .96-.15 1.47l.15-.11.1-.08.04-.03c.22-.16.54-.4.87-.31.11.03.27.12.39.36.26.53-.05.97-.26 1.26l-.12.17-.94 1.45c-.25.36-.35.7-.26.84.09.14.16.16.22.16.1 0 .32-.05.73-.49a8.66 8.66 0 0 0 .8-1.04c.23-.3.87-1.2.87-1.22.15-.71.34-1.34.74-2.03.27-.46.57-.98 1.1-1.22.27-.12.6-.1.86.08a.9.9 0 0 1 .4.63 1.9 1.9 0 0 1-.46 1.6c-.32.38-.75.67-1.12.92h-.01a5.31 5.31 0 0 1-1.05.42c-.04.26-.07.55 0 .8.1.37.54.58.88.54.28-.04.84-.35 1.93-1.64v-.01l.45-.52c.46-.52.9-1.01 1.23-1.61-.3-.36-.46-.63-.46-.85 0-.5.27-1.02.77-1.03a.6.6 0 0 1 .55.33c.16.28.18.68.04 1-.09.22-.17.35-.24.47.22.24.47.47.66.65l.33.33.2.22c.25.27.5.56.7.93a3 3 0 0 1 .23 1.87 2.4 2.4 0 0 1-.91 1.6c-.41.3-.77.4-1.08.4-.63 0-1.04-.45-1.28-.71v-.01a.32.32 0 0 1-.01-.41c.1-.12.26-.12.36-.01h.01c.34.38.8.89 1.73.25.34-.24.58-.68.68-1.22.09-.52.02-1.07-.18-1.46-.15-.3-.38-.55-.61-.8l-.2-.23a25.14 25.14 0 0 1-.9-.9c-.37.6-.82 1.11-1.25 1.6l-.44.5-.01.02c-.62.74-1.53 1.73-2.24 1.82-.29.03-.6-.04-.85-.2-.3-.17-.5-.44-.59-.76a1.8 1.8 0 0 1-.05-.29l-.37.53-.1.12a7.8 7.8 0 0 1-.76.97c-.42.45-.78.66-1.1.65-.17-.01-.42-.09-.62-.41-.24-.38-.14-.93.28-1.54a49.16 49.16 0 0 0 1.06-1.62c.22-.32.29-.46.21-.62-.02-.04-.04-.07-.07-.07-.1-.03-.34.14-.46.23l-.03.03-.1.07c-.17.13-.41.32-.69.33-.06.14-.12.25-.18.33-.27.35-.58.72-.94.99a2.1 2.1 0 0 1-.51.27l-.05.15c-.46 1.5-1.05 2.09-1.47 2.3-.2.11-.4.17-.6.17zm1.33-4.61c-.03 0-.07 0-.12.02-.36.09-.3.82-.29.85.03.28.27.51.49.58.1.03.2.04.29.03.03-.25.04-.53.03-.77-.03-.32-.1-.55-.23-.65-.02-.02-.07-.06-.17-.06zm7.46-2.08a.39.39 0 0 0-.16.03c-.37.17-.61.58-.86 1-.29.5-.45.95-.57 1.45.24-.08.56-.2.65-.26.84-.56 1.48-1.06 1.35-1.93a.32.32 0 0 0-.15-.22.48.48 0 0 0-.26-.07zm-5.37.25a.15.15 0 0 0-.14.09c-.17.28-.11 1.07.17 1.4l.02.02.07-.22c.12-.46.16-.87.12-1.1-.02-.07-.04-.12-.06-.13a.42.42 0 0 0-.18-.06zm8.19-.41c0 .02.04.12.23.36.05-.08.1-.17.15-.3a.56.56 0 0 0-.02-.44c-.03-.05-.06-.06-.1-.06-.19 0-.26.26-.26.44zm4.09 3.89c-.1 0-.2-.01-.28-.03-.41-.1-.7-.54-.86-1.3a7.99 7.99 0 0 1-.14-1.52 21.34 21.34 0 0 1 .47-3.77c-.2.07-.38.12-.57.15a2.41 2.41 0 0 1-2.03-.77c-.62-.71-.62-1.66-.51-2.33.07-.41.21-.76.43-1.02.2-.23.43-.38.69-.45.36-.08.69.03.84.3.08.13.05.31-.06.4-.12.1-.28.06-.36-.07-.02-.04-.14-.1-.32-.05-.13.03-.59.2-.71 1-.13.77 0 1.38.37 1.8a1.9 1.9 0 0 0 1.57.62c.26-.05.54-.14.83-.25.22-.86.56-2.02.96-2.9l.02-.03c.19-.4.45-.96.77-1.4.43-.59.88-.82 1.34-.68.38.11.54.38.61.58.11.33.07.76-.11 1.3a10.08 10.08 0 0 1-1.36 2.33c-.43.52-.92.8-1.38 1.05l-.43.2-.08.34a20.4 20.4 0 0 0-.46 3.65c0 1.24.24 2.16.59 2.25.44.1 1.06-.16 1.55-2 .1-.37.14-.58.16-1.06.01-.16.13-.29.28-.28.14.01.25.15.24.31-.03.56-.1.82-.19 1.2-.18.67-.4 1.22-.66 1.62-.4.64-.85.81-1.2.81zM31.04.75c-.57 0-1.1 1.16-1.4 1.8l-.02.04c-.32.7-.6 1.59-.81 2.35l.03-.02c.41-.2.84-.47 1.2-.91.32-.39.57-.79.85-1.27.43-.74.64-1.43.53-1.75-.02-.07-.08-.17-.26-.23a.41.41 0 0 0-.12-.01z"/><path d="M26.09 7.77c-.12 0-.23-.1-.26-.24-.02-.16.07-.31.2-.34l.18-.04c1.2-.27 3.01-.68 3.8-.79.15-.02.28.1.3.25.01.17-.09.31-.23.33-.78.1-2.58.51-3.77.78l-.17.04h-.05zM1.9 32.1l-.27-.03c-.46-.08-.88-.52-1.04-1.1-.15-.53-.06-1.04.23-1.37.42-.47 1-.68 1.66-.6.37.04.73.16 1.03.3l.04-.13c.25-.92.45-1.89.64-2.82.28-1.38.57-2.82 1.06-4.16.25-.66.59-1.5 1.08-2.17.56-.76 1.23-1.15 1.99-1.15.14 0 .26.13.26.3 0 .15-.12.28-.26.28-1.32 0-2.05 1.5-2.6 2.97-.47 1.3-.75 2.7-1.03 4.06a41.38 41.38 0 0 1-.71 3.09l.09.05.09.06c.53.35 1.12.74 1.69.94.29.1.61.17 1 .2.8.09 1.37 0 2.02-.34a2.92 2.92 0 0 0 1.44-1.97 3 3 0 0 0-.37-2.35 3.84 3.84 0 0 0-1-1.01c-.1-.08-.23-.13-.36-.19l-.18-.07-.04.02c-.41.22-.84.45-1.36.39-.52-.06-.57-.42-.57-.53 0-.38.38-.7.74-.74.46-.07.85 0 1.23.21.48-.25.9-.53 1.37-.87.18-.13.35-.3.52-.47l.25-.25c.53-.5.82-1.36.81-2.38 0-.8-.25-1.6-.69-2.27a3.37 3.37 0 0 0-1.55-1.3c-.4-.19-.87-.38-1.32-.41a5.46 5.46 0 0 0-3.15.82A4.97 4.97 0 0 0 2.49 20c-.18.64-.3 1.6.17 2.56.22.46.58.9.78.8.13-.07.28 0 .34.15.05.15-.01.32-.14.39-.2.1-.53.12-.93-.3a3.18 3.18 0 0 1-.5-.76c-.44-.9-.5-1.94-.21-3.01a5.5 5.5 0 0 1 2.4-3.25 5.96 5.96 0 0 1 3.42-.88 4.5 4.5 0 0 1 1.49.46c.78.35 1.32.81 1.77 1.5.5.75.78 1.68.79 2.6a3.82 3.82 0 0 1-1.23 3.07c-.19.19-.38.38-.6.54-.34.25-.66.47-1 .67l.18.12a3.67 3.67 0 0 1 1.58 4 3.5 3.5 0 0 1-1.72 2.36 3.8 3.8 0 0 1-2.28.39 4.82 4.82 0 0 1-1.1-.23 8.59 8.59 0 0 1-1.8-1l-.1-.05c-.13.37-.28.74-.48 1.05-.39.6-.86.91-1.42.91zm.31-2.53c-.36 0-.73.11-1.02.45-.23.25-.15.62-.11.77.1.37.36.66.62.7.83.14 1.3-.63 1.64-1.63-.32-.15-.72-.3-1.13-.3zm4.8-4.86h.05c.22.03.43-.02.64-.11-.14-.02-.3-.02-.47 0a.45.45 0 0 0-.22.1z"/><path d="M10.95 25.4c-.14 0-.25-.11-.26-.27-.01-.16.1-.3.23-.3.14-.06.69-.52 1.07-.9a5.34 5.34 0 0 0 1.54-2.62v-.02c.17-.79.32-1.5.27-2.21-.48-.07-.82-.27-1.16-.85-.16-.27-.28-.7-.15-1.02a.58.58 0 0 1 .45-.38c.6-.11 1 .76 1.1 1.04.1.22.16.44.2.65.18 0 .4-.06.58-.1l.13-.04.18-.06c.23-.09.57-.22.87.06.24.21.33.51.26.86-.05.25-.16.48-.28.69l-.1.17c-.2.37-.42.75-.58 1.13-.15.35-.24.86-.13 1.05.1.16.16.16.18.15.05 0 .23-.05.53-.5a4.19 4.19 0 0 0 .5-1.1l.1-.32c.2-.61.37-1.25.54-1.87.08-.33.17-.67.27-1 .04-.16.18-.24.32-.19.14.05.21.21.17.37-.1.32-.18.66-.27.98a28.72 28.72 0 0 1-.75 2.57c-.08.22-.26.6-.47.91-.3.46-.6.7-.89.73-.18.02-.44-.03-.66-.4-.32-.58.05-1.53.1-1.63.17-.41.39-.81.6-1.2l.1-.17c.28-.5.26-.66.14-.78-.07-.06-.16-.04-.38.04l-.24.08-.13.03c-.2.05-.4.1-.62.12.05.8-.12 1.57-.28 2.33v.01a5.87 5.87 0 0 1-1.7 2.94c-.1.1-.35.33-.61.55-.48.4-.65.47-.76.47h-.01zm2.09-8h-.02c-.05.01-.06.03-.06.04-.03.09.02.32.1.47.2.34.37.49.63.56a3.3 3.3 0 0 0-.12-.36c-.16-.4-.39-.7-.53-.7zm4.91-.52l-.07-.01c-.14-.05-.21-.21-.17-.37.03-.15.1-.28.14-.4.05-.1.09-.2.11-.3.05-.15.2-.23.33-.18.13.05.2.2.17.36l-.14.37c-.05.11-.1.22-.12.32a.25.25 0 0 1-.25.2z"/><path d="M17.88 22.37c-.23 0-.48-.1-.73-.4-.49-.57-.44-1.53-.32-2.23l.01-.06.2-1.07c.04-.15.18-.25.32-.21.14.04.22.2.19.35-.08.34-.14.7-.2 1.04l-.01.07c-.2 1.07.03 1.53.18 1.71.22.25.39.28.7.1.65-.37.91-1.43 1.12-2.28l.1-.42c.04-.15.18-.24.32-.2.14.05.21.21.17.37l-.1.4c-.23.97-.52 2.17-1.37 2.65a1.2 1.2 0 0 1-.58.18z"/><path d="M20.59 21.72l-.18-.01c-.34-.04-.64-.27-.85-.64a2 2 0 0 1-.25-1.08c.08-1.3.42-2.21 1.07-2.88.32-.33.9-.6 1.41-.37.24.1.56.39.7.75.07.2.08.41.01.6-.05.14-.2.2-.33.15a.3.3 0 0 1-.14-.39.2.2 0 0 0-.02-.13.9.9 0 0 0-.4-.44c-.3-.12-.67.05-.89.27-.54.56-.82 1.33-.9 2.48-.02.47.25 1.05.65 1.1.3.04.72-.02 1.04-.92l.09-.23c.11-.29.18-.47.24-.94.02-.16.15-.27.3-.25.14.03.23.18.21.34-.07.55-.16.78-.28 1.08l-.08.22c-.16.45-.37.79-.62 1-.23.2-.5.3-.78.3z"/><path d="M22.63 21.42a.78.78 0 0 1-.55-.24c-.48-.47-.35-1.35-.27-1.94l.03-.2v-.06c.05-.31.09-.6.16-.92.1-.44.35-1.4.66-2.37.26-.82.63-1.92.94-2.45.34-.57.86-1.27 1.38-1.32.22-.02.43.07.59.27.1.11.1.3-.01.4-.1.12-.27.12-.36 0-.07-.08-.13-.09-.17-.08-.24.02-.62.43-1 1.06-.5.84-1.33 3.7-1.53 4.63-.07.28-.1.55-.14.87v.05l-.04.22c-.07.45-.17 1.14.1 1.4.09.09.18.12.3.08.2-.06.41-.3.5-.56.05-.15.2-.23.33-.18.13.06.2.23.15.38a1.4 1.4 0 0 1-.86.93.77.77 0 0 1-.21.03z"/><path d="M30.23 24.4h-.15c-.87-.05-1.53-1.02-1.66-1.93-.1-.79.1-1.6.34-2.24-.49.08-1.09.03-1.43-.37-.34-.4-.4-.93-.33-1.48a1.14 1.14 0 0 1-.3-.24c-.06.3-.14.58-.26.88-.16.4-.6 1.07-.88 1.37-.59.64-1.3.83-1.92.52a1.07 1.07 0 0 1-.54-.66 2.8 2.8 0 0 1 .01-1.42c.12-.54.3-1 .38-1.18.28-.63.79-1.2 1.3-1.45.25-.12.5-.12.74-.12h.04c.29 0 .43.12.56.22l.05.04c.12.1.15.28.07.41-.08.13-.24.17-.36.08a3.2 3.2 0 0 1-.06-.05c-.1-.08-.14-.12-.26-.12h-.04c-.2 0-.38 0-.54.08-.4.2-.82.66-1.03 1.17-.07.16-.24.58-.35 1.06-.1.46-.1.83-.02 1.08.05.16.13.26.26.33.6.3 1.15-.19 1.35-.41.24-.26.64-.86.77-1.2.16-.4.25-.77.3-1.26.03-.15.11-.26.24-.29.14-.03.3.07.4.26l.15.23.01.01.01.02.07.06c.19-.57.5-1.11.8-1.48a3.16 3.16 0 0 1 1.62-1.2c.3-.07.6 0 .84.2.22.18.36.45.39.76.05.58-.34 1.12-.68 1.47-.35.37-.82.7-1.19.84a2.9 2.9 0 0 1-1.43.18c-.04.34 0 .65.2.89.26.3.97.25 1.35.1l.05-.1.12-.24c.2-.44.46-.99.85-1.09.11-.02.3-.02.48.14l.05.04.03.06a.7.7 0 0 1 0 .53c-.17.49-.82.92-1.21 1.12-.4.86-.58 1.7-.49 2.35.1.67.57 1.4 1.18 1.44.44.03.86-.08 1.13-.29.35-.27.58-.93.66-1.42.05-.28.04-.55-.03-.66-.01-.02-.03-.04-.09-.05-.14-.01-.24-.15-.23-.31.01-.16.13-.28.28-.27a.6.6 0 0 1 .45.28c.24.35.17.9.13 1.13-.06.3-.28 1.33-.88 1.79a2.2 2.2 0 0 1-1.3.39zm-.1-5.67a.82.82 0 0 0-.17.21l-.02.03a1 1 0 0 0 .2-.24zm-2.5-.73c.36.04.78-.02 1.14-.16.55-.22 1.57-1.08 1.51-1.7a.5.5 0 0 0-.17-.35.5.5 0 0 0-.43-.1c-.49.12-1.03.62-1.35 1.02-.22.27-.52.77-.7 1.29z"/><path d="M21.75 28.53c-.36 0-.7-.11-.97-.32a1.46 1.46 0 0 1-.53-1.18c0-1.46.99-2.67 1.3-3.07a5.13 5.13 0 0 1 2.85-1.8 4.16 4.16 0 0 1 1.07-.04l.2-.84.1-.44c.17-.8.35-1.61.43-2.43.02-.16.15-.27.29-.25.14.01.24.16.23.32-.09.85-.28 1.7-.46 2.5l-.1.44c-.06.3-.12.58-.19.84.12.06.22.12.3.2.24.22.36.53.38.91 0 .16-.1.3-.25.3-.14.02-.26-.1-.27-.27a.65.65 0 0 0-.19-.49.65.65 0 0 0-.11-.08l-.2.68c-.7 2.33-1.62 3.43-2 3.9-.15.18-.66.76-1.18.98-.23.1-.46.14-.7.14zm3.39-5.85c-.2 0-.42.02-.66.07-.84.13-1.88.8-2.54 1.6-.13.17-.45.55-.71 1.04-.3.57-.46 1.12-.46 1.64 0 .3.1.54.3.7.3.24.79.28 1.2.11.33-.14.73-.53.98-.83.36-.44 1.22-1.48 1.9-3.7l.17-.62h-.18z"/></g><path stroke="#000" stroke-width="3" d="M109.62 12.88V164"/><path d="M103.08 13.07l6.5-12.93 6.5 12.93h-13z"/><g stroke="#757575"><path fill="none" stroke-width="3" d="M126.59 12.88V164"/><path fill="#757575" stroke="none" d="M120.08 13.07L126.55.14l6.47 12.93h-12.94z"/></g><g stroke="#757575" stroke-width="0" font-family="Fantasy" font-size="24" font-weight="bold" text-anchor="middle"><text x="80.18" y="143.29" transform="matrix(1.3086 0 0 .66862 -22.51 -47.15)">PP</text><text x="80.52" y="174.62" fill="#757575" transform="matrix(1.2084 0 0 .63248 -14.61 -47.94)">BD</text></g><g stroke-width="0" font-family="Fantasy" font-size="24" font-weight="bold" text-anchor="middle"><text x="54.95" y="143.29" fill="#757575" transform="matrix(1.3086 0 0 .66862 -22.51 -47.15)">PP</text><text x="53.2" y="174.63" transform="matrix(1.2084 0 0 .63248 -14.61 -47.94)">BD</text></g></svg>